<svg xmlns="http://www.w3.org/2000/svg" viewBox="0 0 512 512">
  <path fill="currentColor" d="M96 32c13.3 0 24 10.7 24 24l0 16 51.3-12.8c30.4-7.6 62.6-3.6 90.2 11.4 22.5 12.3 48.7 14.6 73 6.5l32.8-10.9c19.9-6.6 40.6 8.2 40.6 29.2l0 158.8c0 13.8-9.4 25.8-22.8 29.1l-9.2 2.3c-30.4 7.6-62.6 3.6-90.2-11.4-22.5-12.3-48.7-14.6-73-6.5L120 312l0 168c0 17.7-14.3 32-32 32s-32-14.3-32-32L56 56C56 42.7 66.7 32 80 32l16 0zM120 138.5l0 41.4 50.3-12.6 0-43.6-12.7 3.2c-12 3-24.5 3.6-36.6 1.7l-1-.2 0 10.1zM120 246.4l50.3-12.6 0-41.6L120 204.8l0 41.6zM218.3 128.5l0 43.7c12 .4 23.9 2.4 35.5 5.9l0-44.6c-11.7-.4-23.4-2.1-34.6-5.1l-.9 .2zM301.7 162.4l0 44.4c11.6 4 23.7 6.2 36 6.6l0-43.7c-12.1-.4-24-2.4-35.5-5.9l-.5-1.4zM386 152.2c-11.7-.4-23.4-2.1-34.6-5.1l-1.4-.4 0 44.7c12 3 24.5 3.6 36.6 1.7l-.6-40.9z"/>
</svg>
